<mxfile host="app.diagrams.net" agent="Mozilla/5.0 (Windows NT 10.0; Win64; x64) AppleWebKit/537.36 (KHTML, like Gecko) Chrome/128.0.0.0 Safari/537.36 Edg/128.0.0.0" version="24.7.15">
  <diagram name="Seite-1" id="3h0mqdkHoot6rFkAIViI">
    <mxGraphModel dx="2696" dy="2879" grid="1" gridSize="10" guides="1" tooltips="1" connect="1" arrows="1" fold="1" page="1" pageScale="1" pageWidth="827" pageHeight="1169" math="0" shadow="0">
      <root>
        <mxCell id="0" />
        <mxCell id="1" parent="0" />
        <mxCell id="FgW4zMUzAmuTyGkmz0fC-167" value="Start" style="html=1;overflow=block;blockSpacing=1;whiteSpace=wrap;fontSize=16.7;align=center;spacing=3.8;rounded=1;absoluteArcSize=1;arcSize=9;strokeWidth=NaN;lucidId=N4ia0j06wFjk;labelBackgroundColor=none;" parent="1" vertex="1">
          <mxGeometry x="-1065" y="-1290" width="120" height="60" as="geometry" />
        </mxCell>
        <mxCell id="9rvMv6ioRsgAv-VnxHhz-1" style="edgeStyle=orthogonalEdgeStyle;rounded=1;orthogonalLoop=1;jettySize=auto;html=1;exitX=0.5;exitY=1;exitDx=0;exitDy=0;entryX=1;entryY=0.5;entryDx=0;entryDy=0;" parent="1" source="FgW4zMUzAmuTyGkmz0fC-168" target="FgW4zMUzAmuTyGkmz0fC-167" edge="1">
          <mxGeometry relative="1" as="geometry">
            <mxPoint x="-650" y="-1270" as="targetPoint" />
            <Array as="points">
              <mxPoint x="-765" y="-870" />
              <mxPoint x="-650" y="-870" />
              <mxPoint x="-650" y="-1260" />
            </Array>
          </mxGeometry>
        </mxCell>
        <mxCell id="FgW4zMUzAmuTyGkmz0fC-168" value="Automatisch" style="html=1;overflow=block;blockSpacing=1;whiteSpace=wrap;fontSize=16.7;align=center;spacing=9;rounded=1;absoluteArcSize=1;arcSize=9;strokeWidth=NaN;lucidId=64iaO.kCiabr;labelBackgroundColor=none;" parent="1" vertex="1">
          <mxGeometry x="-825" y="-1080" width="120" height="90" as="geometry" />
        </mxCell>
        <mxCell id="FgW4zMUzAmuTyGkmz0fC-169" value="Automatisch" style="html=1;overflow=block;blockSpacing=1;whiteSpace=wrap;fontSize=16.7;align=center;spacing=9;rounded=1;absoluteArcSize=1;arcSize=9;strokeWidth=NaN;lucidId=V5iah5MzGClI;labelBackgroundColor=none;" parent="1" vertex="1">
          <mxGeometry x="-450" y="-885" width="120" height="90" as="geometry" />
        </mxCell>
        <mxCell id="FgW4zMUzAmuTyGkmz0fC-170" value="Einlesen der Informationen&lt;div&gt;(Schalter)&lt;/div&gt;" style="html=1;overflow=block;blockSpacing=1;whiteSpace=wrap;fontSize=16.7;align=center;spacing=9;rounded=1;absoluteArcSize=1;arcSize=9;strokeWidth=NaN;lucidId=aLkapkDl1fSc;labelBackgroundColor=none;" parent="1" vertex="1">
          <mxGeometry x="-1065" y="-1200" width="120" height="90" as="geometry" />
        </mxCell>
        <mxCell id="FgW4zMUzAmuTyGkmz0fC-171" value="" style="html=1;jettySize=18;whiteSpace=wrap;fontSize=13;strokeWidth=1.5;rounded=1;arcSize=12;edgeStyle=orthogonalEdgeStyle;startArrow=none;endArrow=block;endFill=1;exitX=0.5;exitY=-0.008;exitPerimeter=0;entryX=0.5;entryY=1.013;entryPerimeter=0;lucidId=yLka5wsqvrpC;labelBackgroundColor=none;fontColor=default;" parent="1" source="FgW4zMUzAmuTyGkmz0fC-170" target="FgW4zMUzAmuTyGkmz0fC-167" edge="1">
          <mxGeometry width="100" height="100" relative="1" as="geometry">
            <Array as="points" />
          </mxGeometry>
        </mxCell>
        <mxCell id="FgW4zMUzAmuTyGkmz0fC-172" value="M/A" style="html=1;overflow=block;blockSpacing=1;whiteSpace=wrap;rhombus;fontSize=16.7;align=center;spacing=3.8;rounded=1;absoluteArcSize=1;arcSize=9;strokeWidth=NaN;lucidId=lQkasiM3B.Ii;labelBackgroundColor=none;" parent="1" vertex="1">
          <mxGeometry x="-1065" y="-1080" width="120" height="90" as="geometry" />
        </mxCell>
        <mxCell id="FgW4zMUzAmuTyGkmz0fC-173" value="Manuell" style="html=1;overflow=block;blockSpacing=1;whiteSpace=wrap;fontSize=16.7;align=center;spacing=9;rounded=1;absoluteArcSize=1;arcSize=9;strokeWidth=NaN;lucidId=6Rkar8V9qdNb;labelBackgroundColor=none;" parent="1" vertex="1">
          <mxGeometry x="-1290" y="-1080" width="105" height="90" as="geometry" />
        </mxCell>
        <mxCell id="FgW4zMUzAmuTyGkmz0fC-174" value="" style="html=1;jettySize=18;whiteSpace=wrap;fontSize=13;strokeWidth=1.5;rounded=1;arcSize=12;edgeStyle=orthogonalEdgeStyle;startArrow=none;endArrow=block;endFill=1;exitX=0.5;exitY=1.008;exitPerimeter=0;entryX=0.5;entryY=0.008;entryPerimeter=0;lucidId=pTkaV78Q1Ox-;labelBackgroundColor=none;fontColor=default;" parent="1" source="FgW4zMUzAmuTyGkmz0fC-170" target="FgW4zMUzAmuTyGkmz0fC-172" edge="1">
          <mxGeometry width="100" height="100" relative="1" as="geometry">
            <Array as="points" />
          </mxGeometry>
        </mxCell>
        <mxCell id="FgW4zMUzAmuTyGkmz0fC-175" value="" style="html=1;jettySize=18;whiteSpace=wrap;fontSize=13.3;fontColor=default;fontStyle=1;align=center;strokeWidth=1.5;rounded=1;arcSize=12;edgeStyle=orthogonalEdgeStyle;startArrow=none;endArrow=block;endFill=1;exitX=0.988;exitY=0.5;exitPerimeter=0;entryX=-0.006;entryY=0.5;entryPerimeter=0;lucidId=nUkahKCkyiuG;labelBackgroundColor=none;" parent="1" source="FgW4zMUzAmuTyGkmz0fC-172" target="FgW4zMUzAmuTyGkmz0fC-168" edge="1">
          <mxGeometry width="100" height="100" relative="1" as="geometry">
            <Array as="points" />
          </mxGeometry>
        </mxCell>
        <mxCell id="FgW4zMUzAmuTyGkmz0fC-176" value="Automatisch" style="text;html=1;resizable=0;labelBackgroundColor=none;align=center;verticalAlign=middle;fontStyle=1;fontSize=13.3;rounded=1;" parent="FgW4zMUzAmuTyGkmz0fC-175" vertex="1">
          <mxGeometry relative="1" as="geometry" />
        </mxCell>
        <mxCell id="FgW4zMUzAmuTyGkmz0fC-177" value="" style="html=1;jettySize=18;whiteSpace=wrap;fontSize=13;strokeWidth=1.5;rounded=1;arcSize=12;edgeStyle=orthogonalEdgeStyle;startArrow=none;endArrow=block;endFill=1;entryX=-0.006;entryY=0.5;entryPerimeter=0;lucidId=oUkayMotbwah;labelBackgroundColor=none;fontColor=default;" parent="1" target="FgW4zMUzAmuTyGkmz0fC-168" edge="1">
          <mxGeometry width="100" height="100" relative="1" as="geometry">
            <Array as="points" />
            <mxPoint x="-856" y="-1036" as="sourcePoint" />
          </mxGeometry>
        </mxCell>
        <mxCell id="FgW4zMUzAmuTyGkmz0fC-178" value="" style="html=1;jettySize=18;whiteSpace=wrap;fontSize=13.3;fontColor=default;fontStyle=1;align=center;strokeWidth=1.5;rounded=1;arcSize=12;edgeStyle=orthogonalEdgeStyle;startArrow=none;endArrow=block;endFill=1;exitX=0.012;exitY=0.5;exitPerimeter=0;entryX=1.007;entryY=0.5;entryPerimeter=0;lucidId=XUka5QmIA_Q7;labelBackgroundColor=none;" parent="1" source="FgW4zMUzAmuTyGkmz0fC-172" target="FgW4zMUzAmuTyGkmz0fC-173" edge="1">
          <mxGeometry width="100" height="100" relative="1" as="geometry">
            <Array as="points" />
          </mxGeometry>
        </mxCell>
        <mxCell id="FgW4zMUzAmuTyGkmz0fC-179" value="Manuell" style="text;html=1;resizable=0;labelBackgroundColor=none;align=center;verticalAlign=middle;fontStyle=1;fontSize=13.3;rounded=1;" parent="FgW4zMUzAmuTyGkmz0fC-178" vertex="1">
          <mxGeometry relative="1" as="geometry" />
        </mxCell>
        <mxCell id="FgW4zMUzAmuTyGkmz0fC-180" value="Licht-Sensor einlesen&amp;nbsp;" style="html=1;overflow=block;blockSpacing=1;whiteSpace=wrap;fontSize=16.7;align=center;spacing=9;rounded=1;absoluteArcSize=1;arcSize=9;strokeWidth=NaN;lucidId=8UkaNSLYqiaT;labelBackgroundColor=none;" parent="1" vertex="1">
          <mxGeometry x="-495" y="-750" width="210" height="90" as="geometry" />
        </mxCell>
        <mxCell id="FgW4zMUzAmuTyGkmz0fC-182" value="&lt;font style=&quot;font-size: 13px;&quot;&gt;Lichteinstrahlung&lt;/font&gt;" style="html=1;overflow=block;blockSpacing=1;whiteSpace=wrap;rhombus;fontSize=16.7;align=center;spacing=3.8;rounded=1;absoluteArcSize=1;arcSize=9;strokeWidth=NaN;lucidId=GVka2OhtKBWA;labelBackgroundColor=none;" parent="1" vertex="1">
          <mxGeometry x="-450" y="-600" width="120" height="90" as="geometry" />
        </mxCell>
        <mxCell id="FgW4zMUzAmuTyGkmz0fC-184" value="" style="html=1;jettySize=18;whiteSpace=wrap;fontSize=13;strokeWidth=1.5;rounded=1;arcSize=12;edgeStyle=orthogonalEdgeStyle;startArrow=none;endArrow=block;endFill=1;exitX=0.5;exitY=1.008;exitPerimeter=0;entryX=0.5;entryY=-0.008;entryPerimeter=0;lucidId=8Vka9QWyHjhu;labelBackgroundColor=none;fontColor=default;" parent="1" source="FgW4zMUzAmuTyGkmz0fC-169" target="FgW4zMUzAmuTyGkmz0fC-180" edge="1">
          <mxGeometry width="100" height="100" relative="1" as="geometry">
            <Array as="points" />
          </mxGeometry>
        </mxCell>
        <mxCell id="FgW4zMUzAmuTyGkmz0fC-185" value="" style="html=1;jettySize=18;whiteSpace=wrap;fontSize=13;strokeWidth=1.5;rounded=1;arcSize=12;edgeStyle=orthogonalEdgeStyle;startArrow=none;endArrow=block;endFill=1;exitX=0.5;exitY=1.008;exitPerimeter=0;entryX=0.5;entryY=0.008;entryPerimeter=0;lucidId=_VkafFux-ZUf;labelBackgroundColor=none;fontColor=default;" parent="1" source="FgW4zMUzAmuTyGkmz0fC-180" target="FgW4zMUzAmuTyGkmz0fC-182" edge="1">
          <mxGeometry width="100" height="100" relative="1" as="geometry">
            <Array as="points" />
          </mxGeometry>
        </mxCell>
        <mxCell id="FgW4zMUzAmuTyGkmz0fC-186" value="" style="html=1;jettySize=18;whiteSpace=wrap;fontSize=13;strokeOpacity=100;strokeWidth=1.5;rounded=1;arcSize=12;edgeStyle=orthogonalEdgeStyle;startArrow=none;endArrow=block;endFill=1;exitX=0.5;exitY=1.008;exitPerimeter=0;lucidId=yWkaRm72xnwu;labelBackgroundColor=none;fontColor=default;entryX=1;entryY=0.5;entryDx=0;entryDy=0;" parent="1" source="FgW4zMUzAmuTyGkmz0fC-173" target="FgW4zMUzAmuTyGkmz0fC-167" edge="1">
          <mxGeometry width="100" height="100" relative="1" as="geometry">
            <Array as="points">
              <mxPoint x="-1237" y="-870" />
              <mxPoint x="-650" y="-870" />
              <mxPoint x="-650" y="-1260" />
            </Array>
            <mxPoint x="-630" y="-1250" as="targetPoint" />
          </mxGeometry>
        </mxCell>
        <mxCell id="FgW4zMUzAmuTyGkmz0fC-193" value="" style="html=1;jettySize=18;whiteSpace=wrap;fontSize=13.3;fontColor=default;fontStyle=1;align=center;strokeWidth=1.5;rounded=1;arcSize=12;edgeStyle=orthogonalEdgeStyle;startArrow=none;endArrow=block;endFill=1;exitX=0.5;exitY=0.992;exitPerimeter=0;entryX=0.467;entryY=-0.012;entryPerimeter=0;lucidId=wXkaepemoRoC;labelBackgroundColor=none;" parent="1" source="FgW4zMUzAmuTyGkmz0fC-182" edge="1">
          <mxGeometry width="100" height="100" relative="1" as="geometry">
            <Array as="points" />
            <mxPoint x="-389.96000000000004" y="-450.7199999999998" as="targetPoint" />
          </mxGeometry>
        </mxCell>
        <mxCell id="FgW4zMUzAmuTyGkmz0fC-194" value="mittel" style="text;html=1;resizable=0;labelBackgroundColor=none;align=center;verticalAlign=middle;fontStyle=1;fontSize=13.3;rounded=1;" parent="FgW4zMUzAmuTyGkmz0fC-193" vertex="1">
          <mxGeometry x="0.2162199822973443" relative="1" as="geometry">
            <mxPoint as="offset" />
          </mxGeometry>
        </mxCell>
        <mxCell id="FgW4zMUzAmuTyGkmz0fC-195" value="" style="html=1;jettySize=18;whiteSpace=wrap;fontSize=13.3;fontColor=default;fontStyle=1;align=center;strokeWidth=1.5;rounded=1;arcSize=12;edgeStyle=orthogonalEdgeStyle;startArrow=none;endArrow=block;endFill=1;exitX=0.988;exitY=0.5;exitPerimeter=0;entryX=0.5;entryY=-0.012;entryPerimeter=0;lucidId=BXkaTj.lhL7O;labelBackgroundColor=none;" parent="1" source="FgW4zMUzAmuTyGkmz0fC-182" edge="1">
          <mxGeometry width="100" height="100" relative="1" as="geometry">
            <Array as="points" />
            <mxPoint x="-180" y="-450.7199999999998" as="targetPoint" />
          </mxGeometry>
        </mxCell>
        <mxCell id="FgW4zMUzAmuTyGkmz0fC-196" value="stark" style="text;html=1;resizable=0;labelBackgroundColor=none;align=center;verticalAlign=middle;fontStyle=1;fontSize=13.3;rounded=1;" parent="FgW4zMUzAmuTyGkmz0fC-195" vertex="1">
          <mxGeometry relative="1" as="geometry" />
        </mxCell>
        <mxCell id="FgW4zMUzAmuTyGkmz0fC-198" value="Max. Lichstralung" style="html=1;overflow=block;blockSpacing=1;whiteSpace=wrap;fontSize=16.7;align=center;spacing=3.8;rounded=1;absoluteArcSize=1;arcSize=9;strokeWidth=NaN;lucidId=DYkaW7NMUvB3;labelBackgroundColor=none;" parent="1" vertex="1">
          <mxGeometry x="-240" y="-450" width="120" height="60" as="geometry" />
        </mxCell>
        <mxCell id="FgW4zMUzAmuTyGkmz0fC-200" value="Mittel" style="html=1;overflow=block;blockSpacing=1;whiteSpace=wrap;fontSize=16.7;align=center;spacing=3.8;rounded=1;absoluteArcSize=1;arcSize=9;strokeWidth=NaN;lucidId=SYkanvJJimkv;labelBackgroundColor=none;" parent="1" vertex="1">
          <mxGeometry x="-446" y="-450" width="120" height="60" as="geometry" />
        </mxCell>
        <mxCell id="FgW4zMUzAmuTyGkmz0fC-202" value="niedrig" style="html=1;overflow=block;blockSpacing=1;whiteSpace=wrap;fontSize=16.7;align=center;spacing=3.8;rounded=1;absoluteArcSize=1;arcSize=9;strokeWidth=NaN;lucidId=mZkaGqFa0F1Y;labelBackgroundColor=none;" parent="1" vertex="1">
          <mxGeometry x="-659" y="-450" width="120" height="60" as="geometry" />
        </mxCell>
        <mxCell id="FgW4zMUzAmuTyGkmz0fC-203" value="" style="html=1;jettySize=18;whiteSpace=wrap;fontSize=13;strokeOpacity=100;strokeWidth=1.5;rounded=1;arcSize=12;edgeStyle=orthogonalEdgeStyle;startArrow=none;endArrow=block;endFill=1;exitX=0.5;exitY=1.013;exitPerimeter=0;lucidId=TZkatt6HrXeA;labelBackgroundColor=none;fontColor=default;" parent="1" source="FgW4zMUzAmuTyGkmz0fC-202" edge="1">
          <mxGeometry width="100" height="100" relative="1" as="geometry">
            <Array as="points" />
            <mxPoint x="-599" y="-331" as="targetPoint" />
          </mxGeometry>
        </mxCell>
        <mxCell id="FgW4zMUzAmuTyGkmz0fC-204" value="" style="html=1;jettySize=18;whiteSpace=wrap;fontSize=13;strokeOpacity=100;strokeWidth=1.5;rounded=1;arcSize=12;edgeStyle=orthogonalEdgeStyle;startArrow=none;endArrow=block;endFill=1;exitX=0.5;exitY=1.013;exitPerimeter=0;entryX=0.5;entryY=-0.008;entryPerimeter=0;lucidId=E0kaeYCsIBdj;labelBackgroundColor=none;fontColor=default;" parent="1" source="FgW4zMUzAmuTyGkmz0fC-200" target="FgW4zMUzAmuTyGkmz0fC-208" edge="1">
          <mxGeometry width="100" height="100" relative="1" as="geometry">
            <Array as="points" />
          </mxGeometry>
        </mxCell>
        <mxCell id="FgW4zMUzAmuTyGkmz0fC-205" value="" style="html=1;jettySize=18;whiteSpace=wrap;fontSize=13;strokeOpacity=100;strokeWidth=1.5;rounded=1;arcSize=12;edgeStyle=orthogonalEdgeStyle;startArrow=none;endArrow=block;endFill=1;exitX=0.5;exitY=1.013;exitPerimeter=0;lucidId=M0ka~HKBPO5.;labelBackgroundColor=none;fontColor=default;" parent="1" source="FgW4zMUzAmuTyGkmz0fC-198" edge="1">
          <mxGeometry width="100" height="100" relative="1" as="geometry">
            <Array as="points" />
            <mxPoint x="-180" y="-331" as="targetPoint" />
          </mxGeometry>
        </mxCell>
        <mxCell id="FgW4zMUzAmuTyGkmz0fC-206" value="" style="html=1;jettySize=18;whiteSpace=wrap;fontSize=13.3;fontColor=default;fontStyle=1;align=center;strokeWidth=1.5;rounded=1;arcSize=12;edgeStyle=orthogonalEdgeStyle;startArrow=none;endArrow=block;endFill=1;exitX=0.012;exitY=0.5;exitPerimeter=0;entryX=0.5;entryY=-0.013;entryPerimeter=0;lucidId=A1kaO-~dMt~i;labelBackgroundColor=none;" parent="1" source="FgW4zMUzAmuTyGkmz0fC-182" edge="1">
          <mxGeometry width="100" height="100" relative="1" as="geometry">
            <Array as="points" />
            <mxPoint x="-599" y="-450.7800000000002" as="targetPoint" />
          </mxGeometry>
        </mxCell>
        <mxCell id="FgW4zMUzAmuTyGkmz0fC-207" value="niedrig" style="text;html=1;resizable=0;labelBackgroundColor=none;align=center;verticalAlign=middle;fontStyle=1;fontSize=13.3;rounded=1;" parent="FgW4zMUzAmuTyGkmz0fC-206" vertex="1">
          <mxGeometry relative="1" as="geometry" />
        </mxCell>
        <mxCell id="FgW4zMUzAmuTyGkmz0fC-208" value="Die Lichtschranke ueberprueft ob Objekt im Weg der Jalousien ist" style="html=1;overflow=block;blockSpacing=1;whiteSpace=wrap;fontSize=16.7;align=center;spacing=9;rounded=1;absoluteArcSize=1;arcSize=9;strokeWidth=NaN;lucidId=71kazL9l_o7C;labelBackgroundColor=none;" parent="1" vertex="1">
          <mxGeometry x="-611" y="-330" width="450" height="90" as="geometry" />
        </mxCell>
        <mxCell id="FgW4zMUzAmuTyGkmz0fC-209" value="Manuell" style="html=1;overflow=block;blockSpacing=1;whiteSpace=wrap;fontSize=16.7;align=center;spacing=9;rounded=1;absoluteArcSize=1;arcSize=9;strokeWidth=NaN;lucidId=U2kaN8M.R-Y0;labelBackgroundColor=none;" parent="1" vertex="1">
          <mxGeometry x="-1522" y="-885" width="120" height="90" as="geometry" />
        </mxCell>
        <mxCell id="FgW4zMUzAmuTyGkmz0fC-210" value="&lt;span style=&quot;font-size: 14px;&quot;&gt;Servomotoren drehen sich bis jalousien 1/3 geschlossen sind&amp;nbsp;&lt;/span&gt;" style="html=1;overflow=block;blockSpacing=1;whiteSpace=wrap;fontSize=16.7;align=center;spacing=3.8;rounded=1;absoluteArcSize=1;arcSize=9;strokeWidth=NaN;lucidId=h3kapz3pPR9o;labelBackgroundColor=none;" parent="1" vertex="1">
          <mxGeometry x="-659" y="-180" width="120" height="80" as="geometry" />
        </mxCell>
        <mxCell id="FgW4zMUzAmuTyGkmz0fC-211" value="&lt;span style=&quot;font-size: 14px;&quot;&gt;Servomotoren drehen sich bis jalousien 2/3 geschlossen sind&amp;nbsp;&lt;/span&gt;" style="html=1;overflow=block;blockSpacing=1;whiteSpace=wrap;fontSize=16.7;align=center;spacing=3.8;rounded=1;absoluteArcSize=1;arcSize=9;strokeWidth=NaN;lucidId=h3kae7OwaSeB;labelBackgroundColor=none;" parent="1" vertex="1">
          <mxGeometry x="-446" y="-180" width="120" height="80" as="geometry" />
        </mxCell>
        <mxCell id="FgW4zMUzAmuTyGkmz0fC-212" value="&lt;span style=&quot;font-size: 14px;&quot;&gt;Servomotoren drehen sich bis jalousien geschlossen sind&amp;nbsp;&lt;/span&gt;" style="html=1;overflow=block;blockSpacing=1;whiteSpace=wrap;fontSize=16.7;align=center;spacing=3.8;rounded=1;absoluteArcSize=1;arcSize=9;strokeWidth=NaN;lucidId=h3kawK8Fqo7F;labelBackgroundColor=none;" parent="1" vertex="1">
          <mxGeometry x="-240" y="-180" width="120" height="80" as="geometry" />
        </mxCell>
        <mxCell id="FgW4zMUzAmuTyGkmz0fC-213" value="" style="html=1;jettySize=18;whiteSpace=wrap;fontSize=13;strokeOpacity=100;strokeWidth=1.5;rounded=1;arcSize=12;edgeStyle=orthogonalEdgeStyle;startArrow=none;endArrow=block;endFill=1;exitX=1.002;exitY=0.5;exitPerimeter=0;entryX=-0.004;entryY=0.5;entryPerimeter=0;lucidId=q3kaxuL_Xz1y;labelBackgroundColor=none;fontColor=default;" parent="1" source="FgW4zMUzAmuTyGkmz0fC-208" target="FgW4zMUzAmuTyGkmz0fC-214" edge="1">
          <mxGeometry width="100" height="100" relative="1" as="geometry">
            <Array as="points" />
          </mxGeometry>
        </mxCell>
        <mxCell id="kNV56OnqHF8RbVFfAxOw-1" style="edgeStyle=orthogonalEdgeStyle;rounded=1;hachureGap=4;orthogonalLoop=1;jettySize=auto;html=1;exitX=1;exitY=0.5;exitDx=0;exitDy=0;entryX=1;entryY=0.5;entryDx=0;entryDy=0;fontFamily=Architects Daughter;fontSource=https%3A%2F%2Ffonts.googleapis.com%2Fcss%3Ffamily%3DArchitects%2BDaughter;" edge="1" parent="1" source="FgW4zMUzAmuTyGkmz0fC-214" target="FgW4zMUzAmuTyGkmz0fC-180">
          <mxGeometry relative="1" as="geometry">
            <Array as="points">
              <mxPoint x="120" y="-285" />
              <mxPoint x="120" y="-705" />
            </Array>
          </mxGeometry>
        </mxCell>
        <mxCell id="FgW4zMUzAmuTyGkmz0fC-214" value="fährt nicht runter" style="html=1;overflow=block;blockSpacing=1;whiteSpace=wrap;fontSize=16.7;align=center;spacing=9;rounded=1;absoluteArcSize=1;arcSize=9;strokeWidth=NaN;lucidId=q3ka0kxX3MY4;labelBackgroundColor=none;" parent="1" vertex="1">
          <mxGeometry x="-101" y="-315" width="176" height="60" as="geometry" />
        </mxCell>
        <mxCell id="FgW4zMUzAmuTyGkmz0fC-215" value="" style="html=1;jettySize=18;whiteSpace=wrap;fontSize=13;strokeWidth=1.5;rounded=1;arcSize=12;edgeStyle=orthogonalEdgeStyle;startArrow=none;endArrow=block;endFill=1;exitX=0.5;exitY=1.008;exitPerimeter=0;entryX=0.5;entryY=-0.012;entryPerimeter=0;lucidId=33kaeuM0woL0;labelBackgroundColor=none;fontColor=default;" parent="1" source="FgW4zMUzAmuTyGkmz0fC-208" target="FgW4zMUzAmuTyGkmz0fC-211" edge="1">
          <mxGeometry width="100" height="100" relative="1" as="geometry">
            <Array as="points" />
          </mxGeometry>
        </mxCell>
        <mxCell id="FgW4zMUzAmuTyGkmz0fC-216" value="" style="html=1;jettySize=18;whiteSpace=wrap;fontSize=13;strokeWidth=1.5;rounded=1;arcSize=12;edgeStyle=orthogonalEdgeStyle;startArrow=none;endArrow=block;endFill=1;exitX=0.026;exitY=1.008;exitPerimeter=0;entryX=0.5;entryY=-0.013;entryPerimeter=0;lucidId=83kaQYvqHcLM;labelBackgroundColor=none;fontColor=default;" parent="1" source="FgW4zMUzAmuTyGkmz0fC-208" target="FgW4zMUzAmuTyGkmz0fC-210" edge="1">
          <mxGeometry width="100" height="100" relative="1" as="geometry">
            <Array as="points" />
          </mxGeometry>
        </mxCell>
        <mxCell id="FgW4zMUzAmuTyGkmz0fC-217" value="" style="html=1;jettySize=18;whiteSpace=wrap;fontSize=13;strokeWidth=1.5;rounded=1;arcSize=12;edgeStyle=orthogonalEdgeStyle;startArrow=none;endArrow=block;endFill=1;exitX=0.958;exitY=1.008;exitPerimeter=0;entryX=0.5;entryY=-0.012;entryPerimeter=0;lucidId=_3kavtbtaSIH;labelBackgroundColor=none;fontColor=default;" parent="1" source="FgW4zMUzAmuTyGkmz0fC-208" target="FgW4zMUzAmuTyGkmz0fC-212" edge="1">
          <mxGeometry width="100" height="100" relative="1" as="geometry">
            <Array as="points" />
          </mxGeometry>
        </mxCell>
        <mxCell id="FgW4zMUzAmuTyGkmz0fC-218" value="" style="html=1;overflow=block;blockSpacing=1;whiteSpace=wrap;fontSize=16.7;align=center;spacing=9;rounded=1;absoluteArcSize=1;arcSize=9;strokeWidth=NaN;lucidId=B4ka2FYlx4dB;labelBackgroundColor=none;" parent="1" vertex="1">
          <mxGeometry x="-1620" y="-735" width="315" height="134" as="geometry" />
        </mxCell>
        <mxCell id="FgW4zMUzAmuTyGkmz0fC-219" value="Temperatursensor" style="html=1;overflow=block;blockSpacing=1;whiteSpace=wrap;fontSize=16.7;align=center;spacing=3.8;rounded=1;absoluteArcSize=1;arcSize=9;strokeWidth=NaN;lucidId=X4kaOixTVMw.;labelBackgroundColor=none;" parent="1" vertex="1">
          <mxGeometry x="-675" y="270" width="195" height="75" as="geometry" />
        </mxCell>
        <mxCell id="FgW4zMUzAmuTyGkmz0fC-220" value="" style="html=1;jettySize=18;whiteSpace=wrap;fontSize=13;strokeWidth=1.5;rounded=1;arcSize=12;edgeStyle=orthogonalEdgeStyle;startArrow=none;endArrow=block;endFill=1;exitX=0.5;exitY=1.013;exitPerimeter=0;entryX=1.004;entryY=0.5;entryPerimeter=0;lucidId=h5kao_4vRjcH;labelBackgroundColor=none;fontColor=default;" parent="1" source="FgW4zMUzAmuTyGkmz0fC-212" target="FgW4zMUzAmuTyGkmz0fC-180" edge="1">
          <mxGeometry width="100" height="100" relative="1" as="geometry">
            <Array as="points">
              <mxPoint x="-180" y="-60" />
              <mxPoint x="120" y="-60" />
              <mxPoint x="120" y="-705" />
            </Array>
          </mxGeometry>
        </mxCell>
        <mxCell id="FgW4zMUzAmuTyGkmz0fC-221" value="" style="html=1;jettySize=18;whiteSpace=wrap;fontSize=13;strokeOpacity=100;strokeWidth=1.5;rounded=1;arcSize=12;edgeStyle=orthogonalEdgeStyle;startArrow=none;endArrow=block;endFill=1;exitX=0.5;exitY=1.01;exitPerimeter=0;entryX=0.5;entryY=-0.01;entryPerimeter=0;lucidId=i5kaaMlf2yOr;labelBackgroundColor=none;fontColor=default;" parent="1" source="FgW4zMUzAmuTyGkmz0fC-219" target="FgW4zMUzAmuTyGkmz0fC-222" edge="1">
          <mxGeometry width="100" height="100" relative="1" as="geometry">
            <Array as="points" />
          </mxGeometry>
        </mxCell>
        <mxCell id="FgW4zMUzAmuTyGkmz0fC-222" value="Information lesen" style="html=1;overflow=block;blockSpacing=1;whiteSpace=wrap;fontSize=16.7;align=center;spacing=3.8;rounded=1;absoluteArcSize=1;arcSize=9;strokeWidth=NaN;lucidId=i5kaBJBGNO58;labelBackgroundColor=none;" parent="1" vertex="1">
          <mxGeometry x="-675" y="405" width="195" height="75" as="geometry" />
        </mxCell>
        <mxCell id="FgW4zMUzAmuTyGkmz0fC-223" value="" style="html=1;jettySize=18;whiteSpace=wrap;fontSize=13;strokeWidth=1.5;rounded=1;arcSize=12;edgeStyle=orthogonalEdgeStyle;startArrow=none;endArrow=block;endFill=1;exitX=0.5;exitY=1.008;exitPerimeter=0;entryX=0.5;entryY=-0.006;entryPerimeter=0;lucidId=m5kajz74DZy8;labelBackgroundColor=none;fontColor=default;" parent="1" source="FgW4zMUzAmuTyGkmz0fC-209" target="FgW4zMUzAmuTyGkmz0fC-218" edge="1">
          <mxGeometry width="100" height="100" relative="1" as="geometry">
            <Array as="points" />
          </mxGeometry>
        </mxCell>
        <mxCell id="FgW4zMUzAmuTyGkmz0fC-224" value="" style="html=1;jettySize=18;whiteSpace=wrap;fontSize=13;strokeWidth=1.5;rounded=1;arcSize=12;edgeStyle=orthogonalEdgeStyle;startArrow=none;endArrow=block;endFill=1;exitX=0.5;exitY=1.013;exitPerimeter=0;entryX=1.004;entryY=0.5;entryPerimeter=0;lucidId=r5kaRFJ3P441;labelBackgroundColor=none;fontColor=default;" parent="1" source="FgW4zMUzAmuTyGkmz0fC-211" target="FgW4zMUzAmuTyGkmz0fC-180" edge="1">
          <mxGeometry width="100" height="100" relative="1" as="geometry">
            <Array as="points">
              <mxPoint x="-386" y="-60" />
              <mxPoint x="120" y="-60" />
              <mxPoint x="120" y="-705" />
            </Array>
          </mxGeometry>
        </mxCell>
        <mxCell id="FgW4zMUzAmuTyGkmz0fC-225" value="" style="html=1;jettySize=18;whiteSpace=wrap;fontSize=13;strokeOpacity=100;strokeWidth=1.5;rounded=1;arcSize=12;edgeStyle=orthogonalEdgeStyle;startArrow=none;endArrow=block;endFill=1;exitX=1.004;exitY=0.5;exitPerimeter=0;entryX=-0.004;entryY=0.5;entryPerimeter=0;lucidId=t5katzH84ghe;labelBackgroundColor=none;fontColor=default;" parent="1" source="FgW4zMUzAmuTyGkmz0fC-222" target="FgW4zMUzAmuTyGkmz0fC-226" edge="1">
          <mxGeometry width="100" height="100" relative="1" as="geometry">
            <Array as="points" />
          </mxGeometry>
        </mxCell>
        <mxCell id="FgW4zMUzAmuTyGkmz0fC-226" value="Auf dem Display zeigen" style="html=1;overflow=block;blockSpacing=1;whiteSpace=wrap;fontSize=16.7;align=center;spacing=3.8;rounded=1;absoluteArcSize=1;arcSize=9;strokeWidth=NaN;lucidId=t5kaX1HOo2ZO;labelBackgroundColor=none;" parent="1" vertex="1">
          <mxGeometry x="-420" y="405" width="195" height="75" as="geometry" />
        </mxCell>
        <mxCell id="WzjnQLMpl0k_vYTGge7P-2" style="edgeStyle=orthogonalEdgeStyle;rounded=0;orthogonalLoop=1;jettySize=auto;html=1;exitX=1;exitY=0.5;exitDx=0;exitDy=0;entryX=1;entryY=1;entryDx=0;entryDy=0;" parent="1" target="FgW4zMUzAmuTyGkmz0fC-218" edge="1">
          <mxGeometry relative="1" as="geometry">
            <mxPoint x="-1290" y="-459.5" as="sourcePoint" />
            <mxPoint x="-1300" y="-610" as="targetPoint" />
          </mxGeometry>
        </mxCell>
        <mxCell id="FgW4zMUzAmuTyGkmz0fC-227" value="" style="html=1;overflow=block;blockSpacing=1;whiteSpace=wrap;rhombus;fontSize=16.7;align=center;spacing=3.8;rounded=1;absoluteArcSize=1;arcSize=9;strokeWidth=NaN;lucidId=w5kaDMIVVfay;labelBackgroundColor=none;" parent="1" vertex="1">
          <mxGeometry x="-1470" y="-520" width="180" height="119" as="geometry" />
        </mxCell>
        <mxCell id="FgW4zMUzAmuTyGkmz0fC-228" value="" style="html=1;jettySize=18;whiteSpace=wrap;fontSize=13;strokeWidth=1.5;rounded=1;arcSize=12;edgeStyle=orthogonalEdgeStyle;startArrow=none;endArrow=block;endFill=1;exitX=0.5;exitY=1.013;exitPerimeter=0;entryX=1.004;entryY=0.5;entryPerimeter=0;lucidId=A5ka~o3I9TCq;labelBackgroundColor=none;fontColor=default;" parent="1" source="FgW4zMUzAmuTyGkmz0fC-210" target="FgW4zMUzAmuTyGkmz0fC-180" edge="1">
          <mxGeometry width="100" height="100" relative="1" as="geometry">
            <Array as="points">
              <mxPoint x="-599" y="-60" />
              <mxPoint x="120" y="-60" />
              <mxPoint x="120" y="-705" />
            </Array>
          </mxGeometry>
        </mxCell>
        <mxCell id="FgW4zMUzAmuTyGkmz0fC-229" value="" style="html=1;jettySize=18;whiteSpace=wrap;fontSize=13;strokeOpacity=100;strokeWidth=1.5;rounded=1;arcSize=12;edgeStyle=orthogonalEdgeStyle;startArrow=none;endArrow=block;endFill=1;exitX=0.5;exitY=1.01;exitPerimeter=0;entryX=0.5;entryY=-0.01;entryPerimeter=0;lucidId=I5ka.4BE7Has;labelBackgroundColor=none;fontColor=default;" parent="1" source="FgW4zMUzAmuTyGkmz0fC-222" target="FgW4zMUzAmuTyGkmz0fC-230" edge="1">
          <mxGeometry width="100" height="100" relative="1" as="geometry">
            <Array as="points" />
          </mxGeometry>
        </mxCell>
        <mxCell id="FgW4zMUzAmuTyGkmz0fC-230" value="A/M" style="html=1;overflow=block;blockSpacing=1;whiteSpace=wrap;fontSize=16.7;align=center;spacing=3.8;rounded=1;absoluteArcSize=1;arcSize=9;strokeWidth=NaN;lucidId=I5kaXj6OB.hF;labelBackgroundColor=none;" parent="1" vertex="1">
          <mxGeometry x="-720" y="555" width="285" height="75" as="geometry" />
        </mxCell>
        <mxCell id="FgW4zMUzAmuTyGkmz0fC-231" value="" style="html=1;jettySize=18;whiteSpace=wrap;fontSize=13;strokeWidth=1.5;rounded=1;arcSize=12;edgeStyle=orthogonalEdgeStyle;startArrow=none;endArrow=block;endFill=1;exitX=0.5;exitY=1.006;exitPerimeter=0;entryX=0.5;entryY=0.005;entryPerimeter=0;lucidId=k8kalxDXopw9;labelBackgroundColor=none;fontColor=default;" parent="1" source="FgW4zMUzAmuTyGkmz0fC-218" target="FgW4zMUzAmuTyGkmz0fC-227" edge="1">
          <mxGeometry width="100" height="100" relative="1" as="geometry">
            <Array as="points" />
          </mxGeometry>
        </mxCell>
        <mxCell id="FgW4zMUzAmuTyGkmz0fC-232" value="" style="html=1;jettySize=18;whiteSpace=wrap;fontSize=13;strokeOpacity=100;strokeWidth=1.5;rounded=1;arcSize=12;edgeStyle=orthogonalEdgeStyle;startArrow=none;endArrow=block;endFill=1;exitX=-0.003;exitY=0.5;exitPerimeter=0;entryX=1.003;entryY=0.5;entryPerimeter=0;lucidId=I9kaCIuA6.Q7;labelBackgroundColor=none;fontColor=default;" parent="1" source="FgW4zMUzAmuTyGkmz0fC-230" target="FgW4zMUzAmuTyGkmz0fC-233" edge="1">
          <mxGeometry width="100" height="100" relative="1" as="geometry">
            <Array as="points" />
          </mxGeometry>
        </mxCell>
        <mxCell id="FgW4zMUzAmuTyGkmz0fC-233" value="Automatisch" style="html=1;overflow=block;blockSpacing=1;whiteSpace=wrap;fontSize=16.7;align=center;spacing=3.8;rounded=1;absoluteArcSize=1;arcSize=9;strokeWidth=NaN;lucidId=I9kaoixso7v0;labelBackgroundColor=none;" parent="1" vertex="1">
          <mxGeometry x="-1065" y="555" width="285" height="75" as="geometry" />
        </mxCell>
        <mxCell id="FgW4zMUzAmuTyGkmz0fC-234" value="" style="html=1;jettySize=18;whiteSpace=wrap;fontSize=13;strokeOpacity=100;strokeWidth=1.5;rounded=1;arcSize=12;edgeStyle=orthogonalEdgeStyle;startArrow=none;endArrow=block;endFill=1;exitX=1.003;exitY=0.5;exitPerimeter=0;entryX=-0.003;entryY=0.5;entryPerimeter=0;lucidId=R9kaGm1NB1BQ;labelBackgroundColor=none;fontColor=default;" parent="1" source="FgW4zMUzAmuTyGkmz0fC-230" target="FgW4zMUzAmuTyGkmz0fC-235" edge="1">
          <mxGeometry width="100" height="100" relative="1" as="geometry">
            <Array as="points" />
          </mxGeometry>
        </mxCell>
        <mxCell id="FgW4zMUzAmuTyGkmz0fC-235" value="Manuell" style="html=1;overflow=block;blockSpacing=1;whiteSpace=wrap;fontSize=16.7;align=center;spacing=3.8;rounded=1;absoluteArcSize=1;arcSize=9;strokeWidth=NaN;lucidId=R9kaT~ewUIt.;labelBackgroundColor=none;" parent="1" vertex="1">
          <mxGeometry x="-375" y="555" width="285" height="75" as="geometry" />
        </mxCell>
        <mxCell id="FgW4zMUzAmuTyGkmz0fC-236" value="" style="html=1;jettySize=18;whiteSpace=wrap;fontSize=13;strokeOpacity=100;strokeWidth=1.5;rounded=1;arcSize=12;edgeStyle=orthogonalEdgeStyle;startArrow=none;endArrow=block;endFill=1;exitX=0.5;exitY=1.01;exitPerimeter=0;entryX=0.5;entryY=-0.01;entryPerimeter=0;lucidId=Z9kalPT_Lo4t;labelBackgroundColor=none;fontColor=default;" parent="1" source="FgW4zMUzAmuTyGkmz0fC-233" target="FgW4zMUzAmuTyGkmz0fC-237" edge="1">
          <mxGeometry width="100" height="100" relative="1" as="geometry">
            <Array as="points" />
          </mxGeometry>
        </mxCell>
        <mxCell id="FgW4zMUzAmuTyGkmz0fC-237" value="Information lesen" style="html=1;overflow=block;blockSpacing=1;whiteSpace=wrap;fontSize=16.7;align=center;spacing=3.8;rounded=1;absoluteArcSize=1;arcSize=9;strokeWidth=NaN;lucidId=Z9kaRaFbGls3;labelBackgroundColor=none;" parent="1" vertex="1">
          <mxGeometry x="-1065" y="690" width="285" height="75" as="geometry" />
        </mxCell>
        <mxCell id="FgW4zMUzAmuTyGkmz0fC-238" value="" style="html=1;jettySize=18;whiteSpace=wrap;fontSize=13;strokeOpacity=100;strokeWidth=1.5;rounded=1;arcSize=12;edgeStyle=orthogonalEdgeStyle;startArrow=none;endArrow=block;endFill=1;exitX=0.5;exitY=1.01;exitPerimeter=0;entryX=0.5;entryY=-0.01;entryPerimeter=0;lucidId=c-kaaiV2UGNM;labelBackgroundColor=none;fontColor=default;" parent="1" source="FgW4zMUzAmuTyGkmz0fC-237" target="FgW4zMUzAmuTyGkmz0fC-239" edge="1">
          <mxGeometry width="100" height="100" relative="1" as="geometry">
            <Array as="points" />
          </mxGeometry>
        </mxCell>
        <mxCell id="FgW4zMUzAmuTyGkmz0fC-239" value="Sensor aktivieren" style="html=1;overflow=block;blockSpacing=1;whiteSpace=wrap;fontSize=16.7;align=center;spacing=3.8;rounded=1;absoluteArcSize=1;arcSize=9;strokeWidth=NaN;lucidId=c-ka1Bm2UGwZ;labelBackgroundColor=none;" parent="1" vertex="1">
          <mxGeometry x="-1065" y="810" width="285" height="75" as="geometry" />
        </mxCell>
        <mxCell id="FgW4zMUzAmuTyGkmz0fC-240" value="" style="html=1;jettySize=18;whiteSpace=wrap;fontSize=13;strokeOpacity=100;strokeWidth=1.5;rounded=1;arcSize=12;edgeStyle=orthogonalEdgeStyle;startArrow=none;endArrow=block;endFill=1;exitX=-0.003;exitY=0.5;exitPerimeter=0;entryX=1.003;entryY=0.5;entryPerimeter=0;lucidId=G-kaFuB0h_sl;labelBackgroundColor=none;fontColor=default;" parent="1" source="FgW4zMUzAmuTyGkmz0fC-239" target="FgW4zMUzAmuTyGkmz0fC-241" edge="1">
          <mxGeometry width="100" height="100" relative="1" as="geometry">
            <Array as="points" />
          </mxGeometry>
        </mxCell>
        <mxCell id="FgW4zMUzAmuTyGkmz0fC-241" value="S. 1 = 25C" style="html=1;overflow=block;blockSpacing=1;whiteSpace=wrap;fontSize=16.7;align=center;spacing=3.8;rounded=1;absoluteArcSize=1;arcSize=9;strokeWidth=NaN;lucidId=G-kaiID4TWj6;labelBackgroundColor=none;" parent="1" vertex="1">
          <mxGeometry x="-1410" y="810" width="285" height="75" as="geometry" />
        </mxCell>
        <mxCell id="FgW4zMUzAmuTyGkmz0fC-242" value="" style="html=1;jettySize=18;whiteSpace=wrap;fontSize=13;strokeOpacity=100;strokeWidth=1.5;rounded=1;arcSize=12;edgeStyle=orthogonalEdgeStyle;startArrow=none;endArrow=block;endFill=1;exitX=0.5;exitY=-0.01;exitPerimeter=0;entryX=0.5;entryY=1.01;entryPerimeter=0;lucidId=S-kaKi5ArPH3;labelBackgroundColor=none;fontColor=default;" parent="1" source="FgW4zMUzAmuTyGkmz0fC-241" target="FgW4zMUzAmuTyGkmz0fC-243" edge="1">
          <mxGeometry width="100" height="100" relative="1" as="geometry">
            <Array as="points" />
          </mxGeometry>
        </mxCell>
        <mxCell id="FgW4zMUzAmuTyGkmz0fC-243" value="S. 2 = 35C" style="html=1;overflow=block;blockSpacing=1;whiteSpace=wrap;fontSize=16.7;align=center;spacing=3.8;rounded=1;absoluteArcSize=1;arcSize=9;strokeWidth=NaN;lucidId=S-ka~piaFnoT;labelBackgroundColor=none;" parent="1" vertex="1">
          <mxGeometry x="-1410" y="675" width="285" height="75" as="geometry" />
        </mxCell>
        <mxCell id="FgW4zMUzAmuTyGkmz0fC-244" value="" style="html=1;jettySize=18;whiteSpace=wrap;fontSize=13;strokeOpacity=100;strokeWidth=1.5;rounded=1;arcSize=12;edgeStyle=orthogonalEdgeStyle;startArrow=none;endArrow=block;endFill=1;exitX=0.5;exitY=-0.01;exitPerimeter=0;entryX=0.5;entryY=1.01;entryPerimeter=0;lucidId=2-kacbVzIvNT;labelBackgroundColor=none;fontColor=default;" parent="1" source="FgW4zMUzAmuTyGkmz0fC-243" target="FgW4zMUzAmuTyGkmz0fC-245" edge="1">
          <mxGeometry width="100" height="100" relative="1" as="geometry">
            <Array as="points" />
          </mxGeometry>
        </mxCell>
        <mxCell id="FgW4zMUzAmuTyGkmz0fC-245" value="S. 3 = 45C" style="html=1;overflow=block;blockSpacing=1;whiteSpace=wrap;fontSize=16.7;align=center;spacing=3.8;rounded=1;absoluteArcSize=1;arcSize=9;strokeWidth=NaN;lucidId=2-kaNQ5_L.j0;labelBackgroundColor=none;" parent="1" vertex="1">
          <mxGeometry x="-1410" y="540" width="285" height="75" as="geometry" />
        </mxCell>
        <mxCell id="FgW4zMUzAmuTyGkmz0fC-246" value="" style="html=1;jettySize=18;whiteSpace=wrap;fontSize=13;strokeOpacity=100;strokeWidth=1.5;rounded=1;arcSize=12;edgeStyle=orthogonalEdgeStyle;startArrow=none;endArrow=block;endFill=1;exitX=1.003;exitY=0.5;exitPerimeter=0;entryX=-0.003;entryY=0.5;entryPerimeter=0;lucidId=R_karjttYDwm;labelBackgroundColor=none;fontColor=default;" parent="1" source="FgW4zMUzAmuTyGkmz0fC-239" target="FgW4zMUzAmuTyGkmz0fC-247" edge="1">
          <mxGeometry width="100" height="100" relative="1" as="geometry">
            <Array as="points" />
          </mxGeometry>
        </mxCell>
        <mxCell id="FgW4zMUzAmuTyGkmz0fC-247" value="Unter 25C = Klima aus" style="html=1;overflow=block;blockSpacing=1;whiteSpace=wrap;fontSize=16.7;align=center;spacing=3.8;rounded=1;absoluteArcSize=1;arcSize=9;strokeWidth=NaN;lucidId=R_kapUQw3Mvy;labelBackgroundColor=none;" parent="1" vertex="1">
          <mxGeometry x="-720" y="810" width="285" height="75" as="geometry" />
        </mxCell>
        <mxCell id="FgW4zMUzAmuTyGkmz0fC-248" value="" style="html=1;jettySize=18;whiteSpace=wrap;fontSize=13;strokeOpacity=100;strokeWidth=1.5;rounded=1;arcSize=12;edgeStyle=orthogonalEdgeStyle;startArrow=none;endArrow=block;endFill=1;exitX=0.5;exitY=1.01;exitPerimeter=0;entryX=0.5;entryY=-0.01;entryPerimeter=0;lucidId=c.kau_OLcWXu;labelBackgroundColor=none;fontColor=default;" parent="1" source="FgW4zMUzAmuTyGkmz0fC-235" target="FgW4zMUzAmuTyGkmz0fC-249" edge="1">
          <mxGeometry width="100" height="100" relative="1" as="geometry">
            <Array as="points" />
          </mxGeometry>
        </mxCell>
        <mxCell id="FgW4zMUzAmuTyGkmz0fC-249" value="manuell auswählen" style="html=1;overflow=block;blockSpacing=1;whiteSpace=wrap;fontSize=16.7;align=center;spacing=3.8;rounded=1;absoluteArcSize=1;arcSize=9;strokeWidth=NaN;lucidId=c.kabSxS3ZtM;labelBackgroundColor=none;" parent="1" vertex="1">
          <mxGeometry x="-375" y="690" width="285" height="75" as="geometry" />
        </mxCell>
        <mxCell id="AfA4V1EvZtcaM7dUSAxK-1" value="wie eingegebn fährt runter" style="rounded=0;whiteSpace=wrap;html=1;" vertex="1" parent="1">
          <mxGeometry x="-1440" y="-170" width="120" height="70" as="geometry" />
        </mxCell>
        <mxCell id="AfA4V1EvZtcaM7dUSAxK-2" value="Sicherheit( ob irgendwas auf dem Weg ist)" style="rounded=0;whiteSpace=wrap;html=1;" vertex="1" parent="1">
          <mxGeometry x="-1440" y="-360" width="140" height="60" as="geometry" />
        </mxCell>
        <mxCell id="AfA4V1EvZtcaM7dUSAxK-4" value="" style="rounded=0;whiteSpace=wrap;html=1;" vertex="1" parent="1">
          <mxGeometry x="-1425" y="-250" width="120" height="60" as="geometry" />
        </mxCell>
        <mxCell id="AfA4V1EvZtcaM7dUSAxK-5" style="edgeStyle=orthogonalEdgeStyle;rounded=0;orthogonalLoop=1;jettySize=auto;html=1;exitX=0.5;exitY=1;exitDx=0;exitDy=0;entryX=0.409;entryY=-0.01;entryDx=0;entryDy=0;entryPerimeter=0;" edge="1" parent="1" source="FgW4zMUzAmuTyGkmz0fC-227" target="AfA4V1EvZtcaM7dUSAxK-2">
          <mxGeometry relative="1" as="geometry" />
        </mxCell>
      </root>
    </mxGraphModel>
  </diagram>
</mxfile>
